<svg xmlns="http://www.w3.org/2000/svg" width="16" height="16" fill="none" viewBox="0 0 128 128" id="dots-menu">
    <path fill="#000" stroke="#000" stroke-width="7" d="M64.5 58C60.9101 58 58 60.9101 58 64.5 58 68.0898 60.9101 71 64.5 71 68.0898 71 71 68.0899 71 64.5 71 60.9101 68.0898 58 64.5 58zM64.5 93C60.9101 93 58 95.9101 58 99.5 58 103.09 60.9101 106 64.5 106 68.0898 106 71 103.09 71 99.5 71 95.9101 68.0898 93 64.5 93zM64.5 23C60.9101 23 58 25.9101 58 29.5 58 33.0898 60.9101 36 64.5 36 68.0898 36 71 33.0899 71 29.5 71 25.9101 68.0898 23 64.5 23z"></path>
</svg>
